{
  "accessors": [
    {
      "bufferView": 2,
      "componentType": 5126,
      "count": 65533,
      "max": [
        257.58819580078125,
        700.0642700195313,
        16.221853256225586
      ],
      "min": [
        -32.55695724487305,
        -700.0643310546875,
        -1383.9078369140625
      ],
      "type": "VEC3"
    },
    {
      "bufferView": 2,
      "byteOffset": 786396,
      "componentType": 5126,
      "count": 65533,
      "max": [
        1.0,
        0.9999997615814209,
        0.9999994039535522
      ],
      "min": [
        -1.0,
        -0.9999986290931702,
        -0.9999998807907104
      ],
      "type": "VEC3"
    },
    {
      "bufferView": 1,
      "componentType": 5126,
      "count": 65533,
      "max": [
        0.9995937943458557,
        0.9990000128746033
      ],
      "min": [
        -0.0010181074030697346,
        0.0010000000474974513
      ],
      "type": "VEC2"
    },
    {
      "bufferView": 0,
      "componentType": 5125,
      "count": 107229,
      "type": "SCALAR"
    },
    {
      "bufferView": 2,
      "byteOffset": 1572792,
      "componentType": 5126,
      "count": 17051,
      "max": [
        257.5881652832031,
        306.1157531738281,
        16.22185516357422
      ],
      "min": [
        -32.556907653808594,
        -700.0643310546875,
        -1146.9464111328125
      ],
      "type": "VEC3"
    },
    {
      "bufferView": 2,
      "byteOffset": 1777404,
      "componentType": 5126,
      "count": 17051,
      "max": [
        1.0,
        0.9996969699859619,
        0.9999994039535522
      ],
      "min": [
        -1.0,
        -0.9999983310699463,
        -0.9996858835220337
      ],
      "type": "VEC3"
    },
    {
      "bufferView": 1,
      "byteOffset": 524264,
      "componentType": 5126,
      "count": 17051,
      "max": [
        0.9989797472953796,
        0.9989863038063049
      ],
      "min": [
        0.0010000000474974513,
        0.0010000000474974513
      ],
      "type": "VEC2"
    },
    {
      "bufferView": 0,
      "byteOffset": 428916,
      "componentType": 5125,
      "count": 28131,
      "type": "SCALAR"
    },
    {
      "bufferView": 2,
      "byteOffset": 1982016,
      "componentType": 5126,
      "count": 31213,
      "max": [
        434.668701171875,
        433.5619201660156,
        20.3452091217041
      ],
      "min": [
        -428.7608642578125,
        -430.7681884765625,
        -400.1793518066406
      ],
      "type": "VEC3"
    },
    {
      "bufferView": 2,
      "byteOffset": 2356572,
      "componentType": 5126,
      "count": 31213,
      "max": [
        0.9999522566795349,
        0.999998927116394,
        1.0
      ],
      "min": [
        -1.0,
        -1.0,
        -1.0
      ],
      "type": "VEC3"
    },
    {
      "bufferView": 1,
      "byteOffset": 660672,
      "componentType": 5126,
      "count": 31213,
      "max": [
        0.9987707138061523,
        0.999500036239624
      ],
      "min": [
        0.0005000000237487257,
        0.0005000000237487257
      ],
      "type": "VEC2"
    },
    {
      "bufferView": 0,
      "byteOffset": 541440,
      "componentType": 5125,
      "count": 146460,
      "type": "SCALAR"
    }
  ],
  "asset": {
    "extras": {
      "author": "PedroRB (https://sketchfab.com/PedroRB)",
      "license": "CC-BY-4.0 (http://creativecommons.org/licenses/by/4.0/)",
      "source": "https://sketchfab.com/3d-models/wheel-04-8772237173b54236a8779818e103c663",
      "title": "Wheel 04"
    },
    "generator": "Sketchfab-12.68.0",
    "version": "2.0"
  },
  "bufferViews": [
    {
      "buffer": 0,
      "byteLength": 1127280,
      "name": "floatBufferViews",
      "target": 34963
    },
    {
      "buffer": 0,
      "byteLength": 910376,
      "byteOffset": 1127280,
      "byteStride": 8,
      "name": "floatBufferViews",
      "target": 34962
    },
    {
      "buffer": 0,
      "byteLength": 2731128,
      "byteOffset": 2037656,
      "byteStride": 12,
      "name": "floatBufferViews",
      "target": 34962
    }
  ],
  "buffers": [
    {
      "byteLength": 4768784,
      "uri": "scene.bin"
    }
  ],
  "images": [
    {
      "uri": "textures/02_-_Default_baseColor.png"
    },
    {
      "uri": "textures/01_-_Default_baseColor.png"
    }
  ],
  "materials": [
    {
      "doubleSided": true,
      "name": "02_-_Default",
      "pbrMetallicRoughness": {
        "baseColorTexture": {
          "index": 0
        },
        "metallicFactor": 0.5049266695226513,
        "roughnessFactor": 0.7340670411691725
      }
    },
    {
      "doubleSided": true,
      "name": "01_-_Default",
      "pbrMetallicRoughness": {
        "baseColorTexture": {
          "index": 1
        },
        "metallicFactor": 0.5489518267553557,
        "roughnessFactor": 0.2246330789050216
      }
    }
  ],
  "meshes": [
    {
      "name": "tyre_02 - Default_0",
      "primitives": [
        {
          "attributes": {
            "NORMAL": 1,
            "POSITION": 0,
            "TEXCOORD_0": 2
          },
          "indices": 3,
          "material": 0,
          "mode": 4
        }
      ]
    },
    {
      "name": "tyre_02 - Default_0",
      "primitives": [
        {
          "attributes": {
            "NORMAL": 5,
            "POSITION": 4,
            "TEXCOORD_0": 6
          },
          "indices": 7,
          "material": 0,
          "mode": 4
        }
      ]
    },
    {
      "name": "wheel_XI_01 - Default_0",
      "primitives": [
        {
          "attributes": {
            "NORMAL": 9,
            "POSITION": 8,
            "TEXCOORD_0": 10
          },
          "indices": 11,
          "material": 1,
          "mode": 4
        }
      ]
    }
  ],
  "nodes": [
    {
      "children": [
        1
      ],
      "matrix": [
        1.0,
        0.0,
        0.0,
        0.0,
        0.0,
        2.220446049250313e-16,
        -1.0,
        0.0,
        0.0,
        1.0,
        2.220446049250313e-16,
        0.0,
        0.0,
        0.0,
        0.0,
        1.0
      ],
      "name": "Sketchfab_model"
    },
    {
      "children": [
        2
      ],
      "matrix": [
        1.0,
        0.0,
        0.0,
        0.0,
        0.0,
        0.0,
        1.0,
        0.0,
        0.0,
        -1.0,
        0.0,
        0.0,
        0.0,
        0.0,
        0.0,
        1.0
      ],
      "name": "7849e4aa139a4680bdc55e341b48970d.fbx"
    },
    {
      "children": [
        3
      ],
      "name": "RootNode"
    },
    {
      "children": [
        4,
        8
      ],
      "matrix": [
        1.0,
        0.0,
        0.0,
        0.0,
        0.0,
        2.220446049250313e-16,
        -1.0,
        0.0,
        0.0,
        1.0,
        2.220446049250313e-16,
        0.0,
        13.659561157226563,
        1.3968658447265625,
        -193.17984008789063,
        1.0
      ],
      "name": "Wheel_MK_XI"
    },
    {
      "children": [
        5
      ],
      "matrix": [
        -2.2988687910395218e-07,
        -1.411035537719708,
        -1.232595164407831e-32,
        0.0,
        0.6828734874725252,
        -1.1125421767305925e-07,
        0.0,
        0.0,
        -9.71849447064008e-40,
        -5.965169097875222e-33,
        0.6828734874725342,
        0.0,
        1.33514404296875e-05,
        9.019287109375,
        -1.1205673217773438e-05,
        1.0
      ],
      "name": "tyre"
    },
    {
      "children": [
        6,
        7
      ],
      "matrix": [
        1.0,
        0.0,
        -0.0,
        0.0,
        0.0,
        1.0,
        0.0,
        0.0,
        0.0,
        0.0,
        1.0,
        0.0,
        -112.515625,
        0.0,
        683.843017578125,
        1.0
      ],
      "name": "Object_5"
    },
    {
      "mesh": 0,
      "name": "tyre_02 - Default_0"
    },
    {
      "mesh": 1,
      "name": "tyre_02 - Default_0"
    },
    {
      "children": [
        9
      ],
      "matrix": [
        1.0096750259399414,
        0.0,
        0.0,
        0.0,
        0.0,
        -1.6449695262493776e-07,
        1.009675025939928,
        0.0,
        0.0,
        -1.009675025939928,
        -1.6449695262493776e-07,
        0.0,
        -0.31790733337402344,
        -193.17984008789063,
        0.14465761184692383,
        1.0
      ],
      "name": "wheel_XI"
    },
    {
      "children": [
        10
      ],
      "matrix": [
        1.0,
        0.0,
        -0.0,
        0.0,
        0.0,
        1.0,
        0.0,
        0.0,
        0.0,
        0.0,
        1.0,
        0.0,
        -2.636013984680176,
        -1.5415234565734863,
        1.837639160839899e-07,
        1.0
      ],
      "name": "Object_9"
    },
    {
      "mesh": 2,
      "name": "wheel_XI_01 - Default_0"
    }
  ],
  "samplers": [
    {
      "magFilter": 9729,
      "minFilter": 9987,
      "wrapS": 10497,
      "wrapT": 10497
    }
  ],
  "scene": 0,
  "scenes": [
    {
      "name": "Sketchfab_Scene",
      "nodes": [
        0
      ]
    }
  ],
  "textures": [
    {
      "sampler": 0,
      "source": 0
    },
    {
      "sampler": 0,
      "source": 1
    }
  ]
}
