{
  "accessors": [
    {
      "bufferView": 2,
      "componentType": 5126,
      "count": 4596,
      "max": [
        2.231487274169922,
        0.884059488773346,
        0.0953173041343689
      ],
      "min": [
        -2.0979528427124023,
        -0.42477694153785706,
        -1.6336628198623657
      ],
      "type": "VEC3"
    },
    {
      "bufferView": 2,
      "byteOffset": 55152,
      "componentType": 5126,
      "count": 4596,
      "max": [
        1.0,
        1.0,
        1.0
      ],
      "min": [
        -1.0,
        -1.0,
        -1.0
      ],
      "type": "VEC3"
    },
    {
      "bufferView": 1,
      "componentType": 5126,
      "count": 4596,
      "max": [
        0.9509491920471191,
        0.999500036239624
      ],
      "min": [
        0.0005000000237487257,
        0.0005000000237487257
      ],
      "type": "VEC2"
    },
    {
      "bufferView": 0,
      "componentType": 5125,
      "count": 10050,
      "type": "SCALAR"
    },
    {
      "bufferView": 2,
      "byteOffset": 110304,
      "componentType": 5126,
      "count": 368,
      "max": [
        0.30107516050338745,
        0.29650115966796875,
        0.11639255285263062
      ],
      "min": [
        -0.30107516050338745,
        -0.29650118947029114,
        -0.05147199705243111
      ],
      "type": "VEC3"
    },
    {
      "bufferView": 2,
      "byteOffset": 114720,
      "componentType": 5126,
      "count": 368,
      "max": [
        0.9875267744064331,
        0.9725240468978882,
        1.0
      ],
      "min": [
        -0.9878926873207092,
        -0.972524106502533,
        -1.0
      ],
      "type": "VEC3"
    },
    {
      "bufferView": 1,
      "byteOffset": 36768,
      "componentType": 5126,
      "count": 368,
      "max": [
        0.999500036239624,
        0.7791722416877747
      ],
      "min": [
        0.0005000000237487257,
        0.0005000000237487257
      ],
      "type": "VEC2"
    },
    {
      "bufferView": 0,
      "byteOffset": 40200,
      "componentType": 5125,
      "count": 1068,
      "type": "SCALAR"
    },
    {
      "bufferView": 2,
      "byteOffset": 119136,
      "componentType": 5126,
      "count": 368,
      "max": [
        0.30107516050338745,
        0.29650115966796875,
        0.11639255285263062
      ],
      "min": [
        -0.30107516050338745,
        -0.29650118947029114,
        -0.05147199705243111
      ],
      "type": "VEC3"
    },
    {
      "bufferView": 2,
      "byteOffset": 123552,
      "componentType": 5126,
      "count": 368,
      "max": [
        0.9875267744064331,
        0.9725240468978882,
        1.0
      ],
      "min": [
        -0.9878926873207092,
        -0.972524106502533,
        -1.0
      ],
      "type": "VEC3"
    },
    {
      "bufferView": 1,
      "byteOffset": 39712,
      "componentType": 5126,
      "count": 368,
      "max": [
        0.999500036239624,
        0.7791722416877747
      ],
      "min": [
        0.0005000000237487257,
        0.0005000000237487257
      ],
      "type": "VEC2"
    },
    {
      "bufferView": 0,
      "byteOffset": 44472,
      "componentType": 5125,
      "count": 1068,
      "type": "SCALAR"
    },
    {
      "bufferView": 2,
      "byteOffset": 127968,
      "componentType": 5126,
      "count": 368,
      "max": [
        0.30107516050338745,
        0.29650115966796875,
        0.11639255285263062
      ],
      "min": [
        -0.30107516050338745,
        -0.29650118947029114,
        -0.05147199705243111
      ],
      "type": "VEC3"
    },
    {
      "bufferView": 2,
      "byteOffset": 132384,
      "componentType": 5126,
      "count": 368,
      "max": [
        0.9875267744064331,
        0.9725240468978882,
        1.0
      ],
      "min": [
        -0.9878926873207092,
        -0.972524106502533,
        -1.0
      ],
      "type": "VEC3"
    },
    {
      "bufferView": 1,
      "byteOffset": 42656,
      "componentType": 5126,
      "count": 368,
      "max": [
        0.999500036239624,
        0.7791722416877747
      ],
      "min": [
        0.0005000000237487257,
        0.0005000000237487257
      ],
      "type": "VEC2"
    },
    {
      "bufferView": 0,
      "byteOffset": 48744,
      "componentType": 5125,
      "count": 1068,
      "type": "SCALAR"
    },
    {
      "bufferView": 2,
      "byteOffset": 136800,
      "componentType": 5126,
      "count": 368,
      "max": [
        0.30107516050338745,
        0.29650115966796875,
        0.11639255285263062
      ],
      "min": [
        -0.30107516050338745,
        -0.29650118947029114,
        -0.05147199705243111
      ],
      "type": "VEC3"
    },
    {
      "bufferView": 2,
      "byteOffset": 141216,
      "componentType": 5126,
      "count": 368,
      "max": [
        0.9875267744064331,
        0.9725240468978882,
        1.0
      ],
      "min": [
        -0.9878926873207092,
        -0.972524106502533,
        -1.0
      ],
      "type": "VEC3"
    },
    {
      "bufferView": 1,
      "byteOffset": 45600,
      "componentType": 5126,
      "count": 368,
      "max": [
        0.999500036239624,
        0.7791722416877747
      ],
      "min": [
        0.0005000000237487257,
        0.0005000000237487257
      ],
      "type": "VEC2"
    },
    {
      "bufferView": 0,
      "byteOffset": 53016,
      "componentType": 5125,
      "count": 1068,
      "type": "SCALAR"
    }
  ],
  "asset": {
    "extras": {
      "author": "scailman (https://sketchfab.com/scailman)",
      "license": "CC-BY-4.0 (http://creativecommons.org/licenses/by/4.0/)",
      "source": "https://sketchfab.com/3d-models/lowpoly-car-pack-94fcef58d8d04af2b6bf42f2949227eb",
      "title": "Lowpoly car pack"
    },
    "generator": "Sketchfab-12.65.0",
    "version": "2.0"
  },
  "bufferViews": [
    {
      "buffer": 0,
      "byteLength": 57288,
      "name": "floatBufferViews",
      "target": 34963
    },
    {
      "buffer": 0,
      "byteLength": 48544,
      "byteOffset": 57288,
      "byteStride": 8,
      "name": "floatBufferViews",
      "target": 34962
    },
    {
      "buffer": 0,
      "byteLength": 145632,
      "byteOffset": 105832,
      "byteStride": 12,
      "name": "floatBufferViews",
      "target": 34962
    }
  ],
  "buffers": [
    {
      "byteLength": 251464,
      "uri": "scene.bin"
    }
  ],
  "images": [
    {
      "uri": "textures/CarTex_1_baseColor.png"
    },
    {
      "uri": "textures/WheelTex_baseColor.png"
    }
  ],
  "materials": [
    {
      "doubleSided": true,
      "name": "CarTex_1",
      "pbrMetallicRoughness": {
        "baseColorTexture": {
          "index": 0
        },
        "metallicFactor": 0.0,
        "roughnessFactor": 0.8929713596
      }
    },
    {
      "doubleSided": true,
      "name": "WheelTex",
      "pbrMetallicRoughness": {
        "baseColorTexture": {
          "index": 1
        },
        "metallicFactor": 0.0,
        "roughnessFactor": 0.8929713596
      }
    }
  ],
  "meshes": [
    {
      "name": "Body_CarTex_1_0",
      "primitives": [
        {
          "attributes": {
            "NORMAL": 1,
            "POSITION": 0,
            "TEXCOORD_0": 2
          },
          "indices": 3,
          "material": 0,
          "mode": 4
        }
      ]
    },
    {
      "name": "FLWheel_WheelTex_0",
      "primitives": [
        {
          "attributes": {
            "NORMAL": 5,
            "POSITION": 4,
            "TEXCOORD_0": 6
          },
          "indices": 7,
          "material": 1,
          "mode": 4
        }
      ]
    },
    {
      "name": "RLWheel_WheelTex_0",
      "primitives": [
        {
          "attributes": {
            "NORMAL": 9,
            "POSITION": 8,
            "TEXCOORD_0": 10
          },
          "indices": 11,
          "material": 1,
          "mode": 4
        }
      ]
    },
    {
      "name": "FRWheel_WheelTex_0",
      "primitives": [
        {
          "attributes": {
            "NORMAL": 13,
            "POSITION": 12,
            "TEXCOORD_0": 14
          },
          "indices": 15,
          "material": 1,
          "mode": 4
        }
      ]
    },
    {
      "name": "RRWheel_WheelTex_0",
      "primitives": [
        {
          "attributes": {
            "NORMAL": 17,
            "POSITION": 16,
            "TEXCOORD_0": 18
          },
          "indices": 19,
          "material": 1,
          "mode": 4
        }
      ]
    }
  ],
  "nodes": [
    {
      "children": [
        1
      ],
      "matrix": [
        1.0,
        0.0,
        0.0,
        0.0,
        0.0,
        2.220446049250313e-16,
        -1.0,
        0.0,
        0.0,
        1.0,
        2.220446049250313e-16,
        0.0,
        0.0,
        0.0,
        0.0,
        1.0
      ],
      "name": "Sketchfab_model"
    },
    {
      "children": [
        2
      ],
      "matrix": [
        1.0,
        0.0,
        0.0,
        0.0,
        0.0,
        0.0,
        1.0,
        0.0,
        0.0,
        -1.0,
        0.0,
        0.0,
        0.0,
        0.0,
        0.0,
        1.0
      ],
      "name": "Car01.FBX"
    },
    {
      "children": [
        3,
        6,
        9,
        12,
        15
      ],
      "name": "RootNode"
    },
    {
      "children": [
        4
      ],
      "matrix": [
        1.0,
        0.0,
        0.0,
        0.0,
        0.0,
        2.220446049250313e-16,
        -1.0,
        0.0,
        0.0,
        1.0,
        2.220446049250313e-16,
        0.0,
        -5.960464477539063e-08,
        0.051711902022361755,
        -8.940696716308594e-08,
        1.0
      ],
      "name": "Body"
    },
    {
      "children": [
        5
      ],
      "matrix": [
        -1.3315805442188116e-07,
        -0.9999999999999911,
        1.2246467991473532e-16,
        0.0,
        -6.12323236502086e-17,
        1.2246468806831348e-16,
        1.0,
        0.0,
        -0.9999999403953463,
        1.3315804648504263e-07,
        -6.123233630763579e-17,
        0.0,
        -0.7691727876663208,
        0.06676734238862991,
        -0.22964130342006683,
        1.0
      ],
      "name": "Object_4"
    },
    {
      "mesh": 0,
      "name": "Body_CarTex_1_0"
    },
    {
      "children": [
        7
      ],
      "matrix": [
        1.0,
        0.0,
        0.0,
        0.0,
        0.0,
        2.220446049250313e-16,
        -1.0,
        0.0,
        0.0,
        1.0,
        2.220446049250313e-16,
        0.0,
        -0.6659385561943054,
        -0.443215012550354,
        -1.3240567445755005,
        1.0
      ],
      "name": "FLWheel"
    },
    {
      "children": [
        8
      ],
      "matrix": [
        -1.3315810214249226e-07,
        -1.0000003576278593,
        -2.980233339371316e-08,
        0.0,
        -3.907186742845616e-15,
        -2.9802320959214878e-08,
        0.9999999403953548,
        0.0,
        -0.9999998807907016,
        1.33158038647784e-07,
        6.123233265790389e-17,
        0.0,
        0.03246027231216431,
        0.0,
        2.9802322387695313e-08,
        1.0
      ],
      "name": "Object_7"
    },
    {
      "mesh": 1,
      "name": "FLWheel_WheelTex_0"
    },
    {
      "children": [
        10
      ],
      "matrix": [
        1.0,
        0.0,
        0.0,
        0.0,
        0.0,
        2.220446049250313e-16,
        -1.0,
        0.0,
        0.0,
        1.0,
        2.220446049250313e-16,
        0.0,
        -0.6659385561943054,
        -0.443215012550354,
        1.125,
        1.0
      ],
      "name": "RLWheel"
    },
    {
      "children": [
        11
      ],
      "matrix": [
        -1.3315810214249226e-07,
        -1.0000003576278593,
        -2.980233339371316e-08,
        0.0,
        -3.907186742845616e-15,
        -2.9802320959214878e-08,
        0.9999999403953548,
        0.0,
        -0.9999998807907016,
        1.33158038647784e-07,
        6.123233265790389e-17,
        0.0,
        0.03246027231216431,
        0.0,
        2.9802322387695313e-08,
        1.0
      ],
      "name": "Object_10"
    },
    {
      "mesh": 2,
      "name": "RLWheel_WheelTex_0"
    },
    {
      "children": [
        13
      ],
      "matrix": [
        1.0,
        0.0,
        0.0,
        0.0,
        0.0,
        2.220446049250313e-16,
        -1.0,
        0.0,
        0.0,
        1.0,
        2.220446049250313e-16,
        0.0,
        0.6657895445823669,
        -0.443215012550354,
        -1.3240567445755005,
        1.0
      ],
      "name": "FRWheel"
    },
    {
      "children": [
        14
      ],
      "matrix": [
        -6.123235455629514e-17,
        1.000000238418579,
        1.224647091125903e-16,
        0.0,
        6.123232900817206e-17,
        -1.224646580163441e-16,
        0.9999998211860657,
        0.0,
        0.9999997615814209,
        6.123232535844019e-17,
        -6.123232535844018e-17,
        0.0,
        -0.03246027231216431,
        -4.933143671337348e-09,
        2.9802322387695313e-08,
        1.0
      ],
      "name": "Object_13"
    },
    {
      "mesh": 3,
      "name": "FRWheel_WheelTex_0"
    },
    {
      "children": [
        16
      ],
      "matrix": [
        1.0,
        0.0,
        0.0,
        0.0,
        0.0,
        2.220446049250313e-16,
        -1.0,
        0.0,
        0.0,
        1.0,
        2.220446049250313e-16,
        0.0,
        0.6657895445823669,
        -0.443215012550354,
        1.125,
        1.0
      ],
      "name": "RRWheel"
    },
    {
      "children": [
        17
      ],
      "matrix": [
        -6.123235455629514e-17,
        1.000000238418579,
        1.224647091125903e-16,
        0.0,
        6.123232900817206e-17,
        -1.224646580163441e-16,
        0.9999998211860657,
        0.0,
        0.9999997615814209,
        6.123232535844019e-17,
        -6.123232535844018e-17,
        0.0,
        -0.03246027231216431,
        -4.933143671337348e-09,
        2.9802322387695313e-08,
        1.0
      ],
      "name": "Object_16"
    },
    {
      "mesh": 4,
      "name": "RRWheel_WheelTex_0"
    }
  ],
  "samplers": [
    {
      "magFilter": 9729,
      "minFilter": 9987,
      "wrapS": 10497,
      "wrapT": 10497
    }
  ],
  "scene": 0,
  "scenes": [
    {
      "name": "Sketchfab_Scene",
      "nodes": [
        0
      ]
    }
  ],
  "textures": [
    {
      "sampler": 0,
      "source": 0
    },
    {
      "sampler": 0,
      "source": 1
    }
  ]
}
